<?xml version="1.0" encoding="UTF-8" standalone="no"?><!-- Generator: Gravit.io --><svg xmlns="http://www.w3.org/2000/svg" xmlns:xlink="http://www.w3.org/1999/xlink" style="isolation:isolate" viewBox="0 0 512 500" width="512pt" height="500pt"><defs><clipPath id="_clipPath_noIoBegUPDsq9bCbLEAYNKy1ClP9VMp5"><rect width="512" height="500"/></clipPath></defs><mask id="_mask_BLyyrZstngqsTFdHt9j5GMcT4abXCm97" x="-200%" y="-200%" width="400%" height="400%"><rect x="-200%" y="-200%" width="400%" height="400%" style="fill:white;"/><circle vector-effect="non-scaling-stroke" cx="255.9999999999999" cy="186.0000000000001" r="78.1249999999999" fill="black" stroke="none"/></mask><g clip-path="url(#_clipPath_noIoBegUPDsq9bCbLEAYNKy1ClP9VMp5)" mask="url(#_mask_BLyyrZstngqsTFdHt9j5GMcT4abXCm97)"><circle vector-effect="non-scaling-stroke" cx="255.9999999999999" cy="186.00000000000017" r="124.99999999999987" fill="rgb(177,156,217)"/><path d="M 357.565 161.59 L 357.565 161.59 C 370.499 161.59 381 172.453 381 185.832 L 381 286.758 C 381 300.137 370.499 311 357.565 311 L 357.565 311 C 344.631 311 334.13 300.137 334.13 286.758 L 334.13 185.832 C 334.13 172.453 344.631 161.59 357.565 161.59 Z" style="stroke:none;fill:#B19CD9;stroke-miterlimit:10;"/><g clip-path="url(#_clipPath_GIV9bx6Zx6xng4NfkPHZy6AN6pZyBhxy)"><text transform="matrix(0.842,0,0,0.842,20.084,443.189)" style="font-family:'Comfortaa';font-weight:700;font-size:100px;font-style:normal;fill:#b19cd9;stroke:none;">ascendant</text></g><defs><clipPath id="_clipPath_GIV9bx6Zx6xng4NfkPHZy6AN6pZyBhxy"><rect x="0" y="0" width="608" height="128" transform="matrix(0.842,0,0,0.842,0,369)"/></clipPath></defs></g></svg>