<?xml version="1.0" encoding="UTF-8" standalone="no"?><!-- Generator: Gravit.io --><svg xmlns="http://www.w3.org/2000/svg" xmlns:xlink="http://www.w3.org/1999/xlink" style="isolation:isolate" viewBox="0 0 1500 500" width="1500pt" height="500pt"><defs><clipPath id="_clipPath_jGTYgnqKWY6PD27Py6KfGNupkAY2CoUV"><rect width="1500" height="500"/></clipPath></defs><mask id="_mask_176LT2MD3oHAeD8a2lwB94N5hunEzdVR" x="-200%" y="-200%" width="400%" height="400%"><rect x="-200%" y="-200%" width="400%" height="400%" style="fill:white;"/><circle vector-effect="non-scaling-stroke" cx="750" cy="188" r="80" fill="black" stroke="none"/></mask><g clip-path="url(#_clipPath_jGTYgnqKWY6PD27Py6KfGNupkAY2CoUV)" mask="url(#_mask_176LT2MD3oHAeD8a2lwB94N5hunEzdVR)"><circle vector-effect="non-scaling-stroke" cx="750" cy="188" r="128" fill="rgb(177,156,217)"/><path d="M 854 163 L 854 163 C 867.246 163 878 174.124 878 187.825 L 878 291.175 C 878 304.876 867.246 316 854 316 L 854 316 C 840.754 316 830 304.876 830 291.175 L 830 187.825 C 830 174.124 840.754 163 854 163 Z" style="stroke:none;fill:#B19CD9;stroke-miterlimit:10;"/><g clip-path="url(#_clipPath_FPatmNYi0V6DdIaCXyDsAPY8aeJJkamq)"><text transform="matrix(1,0,0,1,469.85,438.1)" style="font-family:'Comfortaa';font-weight:700;font-size:100px;font-style:normal;fill:#b19cd9;stroke:none;">ascendant</text></g><defs><clipPath id="_clipPath_FPatmNYi0V6DdIaCXyDsAPY8aeJJkamq"><rect x="0" y="0" width="608" height="128" transform="matrix(1,0,0,1,446,350)"/></clipPath></defs><path d=" M 1316 0 C 1323.038 7.983 1326.411 15.356 1326 22 C 1325.302 30.44 1323.018 37.49 1319 43 C 1314.194 49.714 1308.204 56.724 1301 64 C 1293.653 70.364 1284.673 79.718 1274 92 C 1260.34 108.603 1255.36 130.623 1257 158 C 1257.781 164.157 1258.51 170.479 1261.095 176.872 C 1267.583 195.322 1279.586 213.066 1297 230 C 1313.324 248.228 1334.001 261.905 1359 271 C 1379.978 279.406 1405.664 282.426 1436 280 C 1462.011 274.856 1483.355 265.199 1500 251 L 1500 0 L 1316 0 Z " fill="rgb(177,156,217)"/><path d=" M 0 154 C 6.492 146.731 13.876 140.448 22 135 C 32.066 128.271 43.772 124.978 57 125 C 68.917 125.402 86.947 128.766 111 135 C 135.432 141.503 158.442 145.513 180 147 C 197.959 148.607 217.656 142.971 239 130 C 253.938 121.613 270.958 106.633 290 85 L 356 0 L 0 0 L 0 154 Z " fill="rgb(177,156,217)"/><path d=" M 0 500 L 0 271 C 9.167 268.5 18.843 267.843 29 269 C 48.858 271.088 64.868 276.431 77 285 C 88.266 292.462 98.982 302.845 109 316 C 116.094 326.515 121.801 337.888 126 350 C 133.183 368.258 136.879 385.954 137 403 C 136.147 418.661 131.824 433.671 124 448 C 118.586 456.501 114.929 466.511 113 478 C 112.442 483.044 112.796 487.398 114 491 C 114.967 493.978 116.644 496.988 119 500 L 0 500 Z " fill="rgb(177,156,217)"/><path d=" M 1296 500 C 1297.444 480.008 1301.454 463.684 1308 451 C 1316.378 435.389 1328.054 421.733 1343 410 C 1359.439 396.536 1379.792 385.889 1404 378 C 1418.644 373.605 1436.007 370.969 1456 370 C 1472.8 370.043 1487.477 372.719 1500 378 L 1500 500 L 1296 500 Z " fill="rgb(177,156,217)"/></g></svg>