<?xml version="1.0" encoding="UTF-8" standalone="no"?><!-- Generator: Gravit.io --><svg xmlns="http://www.w3.org/2000/svg" xmlns:xlink="http://www.w3.org/1999/xlink" style="isolation:isolate" viewBox="0 0 1024 512" width="1024pt" height="512pt"><defs><clipPath id="_clipPath_ANjsxtlcC7whIaI4B3Ukx77fG081Q3v5"><rect width="1024" height="512"/></clipPath></defs><mask id="_mask_CaBsWTJxa08mqYmEuAp5SnJ5j9CIQbhI" x="-200%" y="-200%" width="400%" height="400%"><rect x="-200%" y="-200%" width="400%" height="400%" style="fill:white;"/><circle vector-effect="non-scaling-stroke" cx="512" cy="188" r="80" fill="black" stroke="none"/></mask><g clip-path="url(#_clipPath_ANjsxtlcC7whIaI4B3Ukx77fG081Q3v5)" mask="url(#_mask_CaBsWTJxa08mqYmEuAp5SnJ5j9CIQbhI)"><circle vector-effect="non-scaling-stroke" cx="512" cy="188" r="128" fill="rgb(177,156,217)"/><path d="M 616 163 L 616 163 C 629.246 163 640 174.124 640 187.825 L 640 291.175 C 640 304.876 629.246 316 616 316 L 616 316 C 602.754 316 592 304.876 592 291.175 L 592 187.825 C 592 174.124 602.754 163 616 163 Z" style="stroke:none;fill:#B19CD9;stroke-miterlimit:10;"/><g clip-path="url(#_clipPath_fGlorQZd70PkOxv2PgXMTtqoi1BlfFIp)"><text transform="matrix(1,0,0,1,231.85,438.1)" style="font-family:'Comfortaa';font-weight:700;font-size:100px;font-style:normal;fill:#b19cd9;stroke:none;">ascendant</text></g><defs><clipPath id="_clipPath_fGlorQZd70PkOxv2PgXMTtqoi1BlfFIp"><rect x="0" y="0" width="608" height="128" transform="matrix(1,0,0,1,208,350)"/></clipPath></defs><path d=" M 840 0 C 847.038 7.983 850.411 15.356 850 22 C 849.302 30.44 847.018 37.49 843 43 C 838.194 49.714 832.204 56.724 825 64 C 817.653 70.364 808.673 79.718 798 92 C 784.34 108.603 779.36 130.623 781 158 C 781.781 164.157 782.51 170.479 785.095 176.872 C 791.583 195.322 803.586 213.066 821 230 C 837.324 248.228 858.001 261.905 883 271 C 903.978 279.406 929.664 282.426 960 280 C 986.011 274.856 1007.355 265.199 1024 251 L 1024 0 L 840 0 Z " fill="rgb(177,156,217)"/><path d=" M 0 154 C 6.492 146.731 13.876 140.448 22 135 C 32.066 128.271 43.772 124.978 57 125 C 68.917 125.402 86.947 128.766 111 135 C 135.432 141.503 158.442 145.513 180 147 C 197.959 148.607 217.656 142.971 239 130 C 253.938 121.613 270.958 106.633 290 85 L 356 0 L 0 0 L 0 154 Z " fill="rgb(177,156,217)"/><path d=" M 0 512.052 L 0 283.052 C 9.167 280.552 18.843 279.896 29 281.052 C 48.858 283.14 64.868 288.484 77 297.052 C 88.266 304.514 98.982 314.898 109 328.052 C 116.094 338.567 121.801 349.941 126 362.052 C 133.183 380.31 136.879 398.007 137 415.052 C 136.147 430.713 131.824 445.723 124 460.052 C 118.586 468.553 114.929 478.563 113 490.052 C 112.442 495.097 112.796 499.45 114 503.052 C 114.967 506.031 116.644 509.041 119 512.052 L 0 512.052 Z " fill="rgb(177,156,217)"/><path d=" M 820 512 C 821.444 492.008 825.454 475.684 832 463 C 840.378 447.389 852.054 433.733 867 422 C 883.439 408.536 903.792 397.889 928 390 C 942.644 385.605 960.007 382.969 980 382 C 996.8 382.043 1011.477 384.719 1024 390 L 1024 512 L 820 512 Z " fill="rgb(177,156,217)"/></g></svg>